# Blender 4.2.3 LTS
# www.blender.org
mtllib escadapodio.mtl
o Cube.004
v 3.561561 0.453736 -2.426293
v 3.561561 0.321149 -2.426293
v 3.561561 0.453736 2.426293
v 3.561561 0.321149 2.426293
v -1.056293 0.453736 -2.426293
v -1.056293 0.321149 -2.426293
v -1.056293 0.453736 2.426293
v -1.056293 0.321149 2.426293
v 4.021561 0.066293 -2.426293
v 4.021561 -0.066293 -2.426293
v 4.021561 0.066293 2.426293
v 4.021561 -0.066293 2.426293
v -1.516293 0.066293 -2.426293
v -1.516293 -0.066293 -2.426293
v -1.516293 0.066293 2.426293
v -1.516293 -0.066293 2.426293
v 3.871561 0.187331 -2.426293
v 3.871561 0.054744 -2.426293
v 3.871561 0.187331 2.426293
v 3.871561 0.054744 2.426293
v -1.366293 0.187331 -2.426293
v -1.366293 0.054744 -2.426293
v -1.366293 0.187331 2.426293
v -1.366293 0.054744 2.426293
v 3.701561 0.336887 -2.426293
v 3.701561 0.204300 -2.426293
v 3.701561 0.336887 2.426293
v 3.701561 0.204300 2.426293
v -1.196293 0.336887 -2.426293
v -1.196293 0.204300 -2.426293
v -1.196293 0.336887 2.426293
v -1.196293 0.204300 2.426293
v 3.361561 0.597878 -2.426293
v 3.361561 0.465292 -2.426293
v 3.361561 0.597878 2.426293
v 3.361561 0.465292 2.426293
v -0.856293 0.597878 -2.426293
v -0.856293 0.465292 -2.426293
v -0.856293 0.597878 2.426293
v -0.856293 0.465292 2.426293
v 3.191561 0.721404 -2.426293
v 3.191561 0.588818 -2.426293
v 3.191561 0.721404 2.426293
v 3.191561 0.588818 2.426293
v -0.686293 0.721404 -2.426293
v -0.686293 0.588818 -2.426293
v -0.686293 0.721404 2.426293
v -0.686293 0.588818 2.426293
v 3.031561 0.849671 -2.426293
v 3.031561 0.717085 -2.426293
v 3.031561 0.849671 2.426293
v 3.031561 0.717085 2.426293
v -0.526293 0.849671 -2.426293
v -0.526293 0.717085 -2.426293
v -0.526293 0.849671 2.426293
v -0.526293 0.717085 2.426293
v 0.000000 0.717085 -2.426293
v 0.000000 0.849671 2.426293
v 0.000000 0.717085 2.426293
v 0.000000 0.849671 -2.426293
v 0.000000 0.588818 -2.426293
v 0.000000 0.721404 2.426293
v 0.000000 0.588818 2.426293
v 0.000000 0.721404 -2.426293
v 0.000000 0.465292 -2.426293
v 0.000000 0.597878 2.426293
v 0.000000 0.465292 2.426293
v 0.000000 0.597878 -2.426293
v 0.000000 0.321149 -2.426293
v 0.000000 0.453736 2.426293
v 0.000000 0.321149 2.426293
v 0.000000 0.453736 -2.426293
v 0.000000 0.204300 -2.426293
v 0.000000 0.336887 2.426293
v 0.000000 0.204300 2.426293
v 0.000000 0.336887 -2.426293
v 0.000000 0.054744 -2.426293
v 0.000000 0.187331 2.426293
v 0.000000 0.054744 2.426293
v 0.000000 0.187331 -2.426293
v 0.000000 -0.066293 -2.426293
v 0.000000 0.066293 2.426293
v 0.000000 -0.066293 2.426293
v 0.000000 0.066293 -2.426293
vn -0.0000 1.0000 -0.0000
vn -0.0000 -0.0000 1.0000
vn -1.0000 -0.0000 -0.0000
vn -0.0000 -1.0000 -0.0000
vn 1.0000 -0.0000 -0.0000
vn -0.0000 -0.0000 -1.0000
vt 0.750000 0.500000
vt 0.875000 0.500000
vt 0.875000 0.750000
vt 0.750000 0.750000
vt 0.375000 0.875000
vt 0.625000 0.875000
vt 0.625000 1.000000
vt 0.375000 1.000000
vt 0.375000 0.000000
vt 0.625000 0.000000
vt 0.625000 0.250000
vt 0.375000 0.250000
vt 0.250000 0.500000
vt 0.375000 0.500000
vt 0.375000 0.750000
vt 0.250000 0.750000
vt 0.625000 0.500000
vt 0.625000 0.750000
vt 0.375000 0.375000
vt 0.625000 0.375000
vt 0.125000 0.500000
vt 0.125000 0.750000
s 1
usemtl Material.004
f 72/1/1 5/2/1 7/3/1 70/4/1
f 71/5/2 70/6/2 7/7/2 8/8/2
f 8/9/3 7/10/3 5/11/3 6/12/3
f 69/13/4 2/14/4 4/15/4 71/16/4
f 2/14/5 1/17/5 3/18/5 4/15/5
f 69/19/6 72/20/6 1/17/6 2/14/6
f 6/12/6 5/11/6 72/20/6 69/19/6
f 6/21/4 69/13/4 71/16/4 8/22/4
f 4/15/2 3/18/2 70/6/2 71/5/2
f 1/17/1 72/1/1 70/4/1 3/18/1
usemtl Material
f 84/1/1 13/2/1 15/3/1 82/4/1
f 83/5/2 82/6/2 15/7/2 16/8/2
f 16/9/3 15/10/3 13/11/3 14/12/3
f 81/13/4 10/14/4 12/15/4 83/16/4
f 10/14/5 9/17/5 11/18/5 12/15/5
f 81/19/6 84/20/6 9/17/6 10/14/6
f 14/12/6 13/11/6 84/20/6 81/19/6
f 14/21/4 81/13/4 83/16/4 16/22/4
f 12/15/2 11/18/2 82/6/2 83/5/2
f 9/17/1 84/1/1 82/4/1 11/18/1
usemtl Material.001
f 80/1/1 21/2/1 23/3/1 78/4/1
f 79/5/2 78/6/2 23/7/2 24/8/2
f 24/9/3 23/10/3 21/11/3 22/12/3
f 77/13/4 18/14/4 20/15/4 79/16/4
f 18/14/5 17/17/5 19/18/5 20/15/5
f 77/19/6 80/20/6 17/17/6 18/14/6
f 22/12/6 21/11/6 80/20/6 77/19/6
f 22/21/4 77/13/4 79/16/4 24/22/4
f 20/15/2 19/18/2 78/6/2 79/5/2
f 17/17/1 80/1/1 78/4/1 19/18/1
usemtl Material.002
f 76/1/1 29/2/1 31/3/1 74/4/1
f 75/5/2 74/6/2 31/7/2 32/8/2
f 32/9/3 31/10/3 29/11/3 30/12/3
f 73/13/4 26/14/4 28/15/4 75/16/4
f 26/14/5 25/17/5 27/18/5 28/15/5
f 73/19/6 76/20/6 25/17/6 26/14/6
f 30/12/6 29/11/6 76/20/6 73/19/6
f 30/21/4 73/13/4 75/16/4 32/22/4
f 28/15/2 27/18/2 74/6/2 75/5/2
f 25/17/1 76/1/1 74/4/1 27/18/1
usemtl Material.003
f 68/1/1 37/2/1 39/3/1 66/4/1
f 67/5/2 66/6/2 39/7/2 40/8/2
f 40/9/3 39/10/3 37/11/3 38/12/3
f 65/13/4 34/14/4 36/15/4 67/16/4
f 34/14/5 33/17/5 35/18/5 36/15/5
f 65/19/6 68/20/6 33/17/6 34/14/6
f 38/12/6 37/11/6 68/20/6 65/19/6
f 38/21/4 65/13/4 67/16/4 40/22/4
f 36/15/2 35/18/2 66/6/2 67/5/2
f 33/17/1 68/1/1 66/4/1 35/18/1
usemtl Material.005
f 64/1/1 45/2/1 47/3/1 62/4/1
f 63/5/2 62/6/2 47/7/2 48/8/2
f 48/9/3 47/10/3 45/11/3 46/12/3
f 61/13/4 42/14/4 44/15/4 63/16/4
f 42/14/5 41/17/5 43/18/5 44/15/5
f 61/19/6 64/20/6 41/17/6 42/14/6
f 46/12/6 45/11/6 64/20/6 61/19/6
f 46/21/4 61/13/4 63/16/4 48/22/4
f 44/15/2 43/18/2 62/6/2 63/5/2
f 41/17/1 64/1/1 62/4/1 43/18/1
usemtl Material.006
f 60/1/1 53/2/1 55/3/1 58/4/1
f 59/5/2 58/6/2 55/7/2 56/8/2
f 56/9/3 55/10/3 53/11/3 54/12/3
f 57/13/4 50/14/4 52/15/4 59/16/4
f 50/14/5 49/17/5 51/18/5 52/15/5
f 57/19/6 60/20/6 49/17/6 50/14/6
f 54/12/6 53/11/6 60/20/6 57/19/6
f 54/21/4 57/13/4 59/16/4 56/22/4
f 52/15/2 51/18/2 58/6/2 59/5/2
f 49/17/1 60/1/1 58/4/1 51/18/1
